<svg width="173" height="18" viewBox="0 0 173 18" fill="none" xmlns="http://www.w3.org/2000/svg">
<line y1="8" x2="80" y2="8" stroke="#18191F" stroke-width="2"/>
<path d="M88.98 14V3.92H92.242C92.3213 3.92 92.4847 3.92233 92.732 3.927C92.9793 3.93167 93.2173 3.948 93.446 3.976C94.258 4.074 94.9463 4.35633 95.511 4.823C96.0757 5.28967 96.505 5.88233 96.799 6.601C97.093 7.31967 97.24 8.106 97.24 8.96C97.24 9.814 97.093 10.6003 96.799 11.319C96.505 12.0377 96.0757 12.6303 95.511 13.097C94.9463 13.5637 94.258 13.846 93.446 13.944C93.2173 13.972 92.9793 13.9883 92.732 13.993C92.4847 13.9977 92.3213 14 92.242 14H88.98ZM90.912 12.208H92.242C92.368 12.208 92.5383 12.2057 92.753 12.201C92.9677 12.1917 93.1613 12.1707 93.334 12.138C93.7727 12.0493 94.1297 11.844 94.405 11.522C94.685 11.2 94.8903 10.8127 95.021 10.36C95.1563 9.90733 95.224 9.44067 95.224 8.96C95.224 8.456 95.154 7.97767 95.014 7.525C94.8787 7.07233 94.671 6.68967 94.391 6.377C94.111 6.06433 93.7587 5.866 93.334 5.782C93.1613 5.74467 92.9677 5.72367 92.753 5.719C92.5383 5.71433 92.368 5.712 92.242 5.712H90.912V12.208ZM101.059 14V3.92H102.963V14H101.059ZM110.87 14.21C110.123 14.21 109.449 14.0793 108.847 13.818C108.25 13.552 107.757 13.174 107.37 12.684C106.987 12.1893 106.745 11.6013 106.642 10.92L108.63 10.626C108.77 11.2047 109.059 11.6503 109.498 11.963C109.937 12.2757 110.436 12.432 110.996 12.432C111.309 12.432 111.612 12.383 111.906 12.285C112.2 12.187 112.44 12.0423 112.627 11.851C112.818 11.6597 112.914 11.424 112.914 11.144C112.914 11.0413 112.898 10.9433 112.865 10.85C112.837 10.752 112.788 10.661 112.718 10.577C112.648 10.493 112.548 10.4137 112.417 10.339C112.291 10.2643 112.13 10.1967 111.934 10.136L109.316 9.366C109.12 9.31 108.891 9.23067 108.63 9.128C108.373 9.02533 108.124 8.87833 107.881 8.687C107.638 8.49567 107.435 8.24367 107.272 7.931C107.113 7.61367 107.034 7.21467 107.034 6.734C107.034 6.05733 107.204 5.495 107.545 5.047C107.886 4.599 108.341 4.26533 108.91 4.046C109.479 3.82667 110.109 3.71933 110.8 3.724C111.495 3.73333 112.116 3.85233 112.662 4.081C113.208 4.30967 113.665 4.64333 114.034 5.082C114.403 5.516 114.669 6.048 114.832 6.678L112.774 7.028C112.699 6.70133 112.562 6.426 112.361 6.202C112.16 5.978 111.92 5.80767 111.64 5.691C111.365 5.57433 111.075 5.51133 110.772 5.502C110.473 5.49267 110.191 5.53467 109.925 5.628C109.664 5.71667 109.449 5.84733 109.281 6.02C109.118 6.19267 109.036 6.398 109.036 6.636C109.036 6.85533 109.104 7.035 109.239 7.175C109.374 7.31033 109.545 7.42 109.75 7.504C109.955 7.588 110.165 7.658 110.38 7.714L112.13 8.19C112.391 8.26 112.681 8.35333 112.998 8.47C113.315 8.582 113.619 8.74067 113.908 8.946C114.202 9.14667 114.442 9.41267 114.629 9.744C114.82 10.0753 114.916 10.4953 114.916 11.004C114.916 11.5453 114.802 12.019 114.573 12.425C114.349 12.8263 114.046 13.16 113.663 13.426C113.28 13.6873 112.846 13.8833 112.361 14.014C111.88 14.1447 111.383 14.21 110.87 14.21ZM122.781 14.21C121.773 14.21 120.902 13.9907 120.17 13.552C119.442 13.1133 118.879 12.4997 118.483 11.711C118.091 10.9223 117.895 10.0053 117.895 8.96C117.895 7.91467 118.091 6.99767 118.483 6.209C118.879 5.42033 119.442 4.80667 120.17 4.368C120.902 3.92933 121.773 3.71 122.781 3.71C123.938 3.71 124.909 3.997 125.693 4.571C126.481 5.145 127.037 5.922 127.359 6.902L125.441 7.434C125.254 6.82267 124.939 6.349 124.496 6.013C124.052 5.67233 123.481 5.502 122.781 5.502C122.141 5.502 121.607 5.64433 121.178 5.929C120.753 6.21367 120.433 6.615 120.219 7.133C120.004 7.651 119.897 8.26 119.897 8.96C119.897 9.66 120.004 10.269 120.219 10.787C120.433 11.305 120.753 11.7063 121.178 11.991C121.607 12.2757 122.141 12.418 122.781 12.418C123.481 12.418 124.052 12.2477 124.496 11.907C124.939 11.5663 125.254 11.0927 125.441 10.486L127.359 11.018C127.037 11.998 126.481 12.775 125.693 13.349C124.909 13.923 123.938 14.21 122.781 14.21ZM135.226 14.21C134.218 14.21 133.348 13.9907 132.615 13.552C131.887 13.1133 131.325 12.4997 130.928 11.711C130.536 10.9223 130.34 10.0053 130.34 8.96C130.34 7.91467 130.536 6.99767 130.928 6.209C131.325 5.42033 131.887 4.80667 132.615 4.368C133.348 3.92933 134.218 3.71 135.226 3.71C136.234 3.71 137.102 3.92933 137.83 4.368C138.563 4.80667 139.125 5.42033 139.517 6.209C139.914 6.99767 140.112 7.91467 140.112 8.96C140.112 10.0053 139.914 10.9223 139.517 11.711C139.125 12.4997 138.563 13.1133 137.83 13.552C137.102 13.9907 136.234 14.21 135.226 14.21ZM135.226 12.418C135.865 12.4273 136.397 12.2897 136.822 12.005C137.247 11.7203 137.564 11.3167 137.774 10.794C137.989 10.2713 138.096 9.66 138.096 8.96C138.096 8.26 137.989 7.65333 137.774 7.14C137.564 6.62667 137.247 6.22767 136.822 5.943C136.397 5.65833 135.865 5.51133 135.226 5.502C134.587 5.49267 134.055 5.63033 133.63 5.915C133.205 6.19967 132.886 6.60333 132.671 7.126C132.461 7.64867 132.356 8.26 132.356 8.96C132.356 9.66 132.461 10.2667 132.671 10.78C132.886 11.2933 133.205 11.6923 133.63 11.977C134.055 12.2617 134.587 12.4087 135.226 12.418ZM145.255 14L142.175 3.92H144.135L146.655 12.208L149.217 3.92H151.177L148.097 14H145.255ZM154.232 14V3.92H160.812V5.698H156.136V7.854H159.972V9.632H156.136V12.222H160.812V14H154.232ZM164.49 14V3.92H168.746C168.844 3.92 168.974 3.92467 169.138 3.934C169.306 3.93867 169.455 3.95267 169.586 3.976C170.188 4.06933 170.68 4.26767 171.063 4.571C171.45 4.87433 171.735 5.257 171.917 5.719C172.099 6.17633 172.19 6.68733 172.19 7.252C172.19 8.09667 171.98 8.82 171.56 9.422C171.14 10.0193 170.482 10.388 169.586 10.528L168.746 10.584H166.394V14H164.49ZM170.174 14L168.186 9.898L170.146 9.52L172.33 14H170.174ZM166.394 8.806H168.662C168.76 8.806 168.867 8.80133 168.984 8.792C169.1 8.78267 169.208 8.764 169.306 8.736C169.562 8.666 169.761 8.54933 169.901 8.386C170.041 8.218 170.136 8.03367 170.188 7.833C170.244 7.62767 170.272 7.434 170.272 7.252C170.272 7.07 170.244 6.87867 170.188 6.678C170.136 6.47267 170.041 6.28833 169.901 6.125C169.761 5.957 169.562 5.838 169.306 5.768C169.208 5.74 169.1 5.72133 168.984 5.712C168.867 5.70267 168.76 5.698 168.662 5.698H166.394V8.806Z" fill="#18191F"/>
</svg>
